<?xml version="1.0" standalone="no"?><!DOCTYPE svg PUBLIC "-//W3C//DTD SVG 1.1//EN" "http://www.w3.org/Graphics/SVG/1.1/DTD/svg11.dtd"><svg t="1740567565009" class="icon" viewBox="0 0 1024 1024" version="1.1" xmlns="http://www.w3.org/2000/svg" p-id="18254" xmlns:xlink="http://www.w3.org/1999/xlink" width="200" height="200"><path d="M555 174.4l-9.6-9.6 9.6-9.6c2.4-2.4 2.4-6.3 0-8.8s-6.3-2.4-8.8 0l-9.6 9.6-9.6-9.6c-2.4-2.4-6.3-2.4-8.8 0s-2.4 6.3 0 8.8l9.6 9.6-9.6 9.6c-2.4 2.4-2.4 6.3 0 8.8s6.3 2.4 8.8 0l9.6-9.6 9.6 9.6c2.4 2.4 6.3 2.4 8.8 0s2.4-6.3 0-8.8zM881.9 893.8l-9.6-9.6 9.6-9.6c2.4-2.4 2.4-6.3 0-8.8-2.4-2.4-6.3-2.4-8.8 0l-9.6 9.6-9.6-9.6c-2.4-2.4-6.3-2.4-8.8 0-2.4 2.4-2.4 6.3 0 8.8l9.6 9.6-9.6 9.6c-2.4 2.4-2.4 6.3 0 8.8s6.3 2.4 8.8 0l9.6-9.6 9.6 9.6c2.4 2.4 6.3 2.4 8.8 0s2.4-6.4 0-8.8zM187.2 846.2c-1.7 0-3 1.4-3 3v9.7c0 1.7 1.4 3 3 3s3-1.4 3-3v-9.7c0-1.7-1.4-3-3-3zM187.2 875.2c-1.7 0-3 1.4-3 3v9.7c0 1.7 1.4 3 3 3s3-1.4 3-3v-9.7c0-1.6-1.4-3-3-3zM196.1 873.3c-1.2-1.2-3.1-1.2-4.3 0-1.2 1.2-1.2 3.1 0 4.3l6.8 6.8c0.6 0.6 1.4 0.9 2.1 0.9s1.5-0.3 2.1-0.9c1.2-1.2 1.2-3.1 0-4.3l-6.7-6.8zM175.6 852.7c-1.2-1.2-3.1-1.2-4.3 0-1.2 1.2-1.2 3.1 0 4.3l6.8 6.8c0.6 0.6 1.4 0.9 2.1 0.9 0.8 0 1.5-0.3 2.1-0.9 1.2-1.2 1.2-3.1 0-4.3l-6.7-6.8zM178.2 873.3l-6.8 6.8c-1.2 1.2-1.2 3.1 0 4.3 0.6 0.6 1.4 0.9 2.1 0.9 0.8 0 1.5-0.3 2.1-0.9l6.8-6.8c1.2-1.2 1.2-3.1 0-4.3-1.1-1.2-3-1.2-4.2 0zM194 864.7c0.8 0 1.5-0.3 2.1-0.9l6.8-6.8c1.2-1.2 1.2-3.1 0-4.3-1.2-1.2-3.1-1.2-4.3 0l-6.8 6.8c-1.2 1.2-1.2 3.1 0 4.3 0.7 0.7 1.4 0.9 2.2 0.9zM206.5 865.5h-9.7c-1.7 0-3 1.4-3 3s1.4 3 3 3h9.7c1.7 0 3-1.4 3-3s-1.3-3-3-3zM180.5 868.6c0-1.7-1.4-3-3-3h-9.7c-1.7 0-3 1.4-3 3s1.4 3 3 3h9.7c1.6 0 3-1.4 3-3zM714.7 292.2h-13.6v-13.6c0-3.4-2.8-6.2-6.2-6.2-3.4 0-6.2 2.8-6.2 6.2v13.6h-13.6c-3.4 0-6.2 2.8-6.2 6.2s2.8 6.2 6.2 6.2h13.6v13.6c0 3.4 2.8 6.2 6.2 6.2 3.4 0 6.2-2.8 6.2-6.2v-13.6h13.6c3.4 0 6.2-2.8 6.2-6.2s-2.8-6.2-6.2-6.2zM239.5 760.8l-9.6-9.6 9.6-9.6c2.4-2.4 2.4-6.3 0-8.8-2.4-2.4-6.3-2.4-8.8 0l-9.6 9.6-9.6-9.6c-2.4-2.4-6.3-2.4-8.8 0s-2.4 6.3 0 8.8l9.6 9.6-9.6 9.6c-2.4 2.4-2.4 6.3 0 8.8s6.3 2.4 8.8 0l9.6-9.6 9.6 9.6c2.4 2.4 6.3 2.4 8.8 0 2.4-2.5 2.4-6.4 0-8.8zM817 255.3c-11.6 0-21-9.4-21-21s9.4-21 21-21 21 9.4 21 21-9.5 21-21 21z m0-32c-6.1 0-11 4.9-11 11s4.9 11 11 11 11-4.9 11-11-5-11-11-11zM772.6 473.6c-1.7 0-3 1.4-3 3v9.7c0 1.7 1.4 3 3 3 1.7 0 3-1.4 3-3v-9.7c0.1-1.6-1.3-3-3-3zM772.6 502.7c-1.7 0-3 1.4-3 3v9.7c0 1.7 1.4 3 3 3 1.7 0 3-1.4 3-3v-9.7c0.1-1.7-1.3-3-3-3zM781.6 500.7c-1.2-1.2-3.1-1.2-4.3 0-1.2 1.2-1.2 3.1 0 4.3l6.8 6.8c0.6 0.6 1.4 0.9 2.1 0.9 0.8 0 1.5-0.3 2.1-0.9 1.2-1.2 1.2-3.1 0-4.3l-6.7-6.8zM761.1 480.2c-1.2-1.2-3.1-1.2-4.3 0-1.2 1.2-1.2 3.1 0 4.3l6.8 6.8c0.6 0.6 1.4 0.9 2.1 0.9s1.5-0.3 2.1-0.9c1.2-1.2 1.2-3.1 0-4.3l-6.7-6.8zM763.6 500.7l-6.8 6.8c-1.2 1.2-1.2 3.1 0 4.3 0.6 0.6 1.4 0.9 2.1 0.9s1.5-0.3 2.1-0.9l6.8-6.8c1.2-1.2 1.2-3.1 0-4.3-1.1-1.2-3-1.2-4.2 0zM779.5 492.2c0.8 0 1.5-0.3 2.1-0.9l6.8-6.8c1.2-1.2 1.2-3.1 0-4.3-1.2-1.2-3.1-1.2-4.3 0l-6.8 6.8c-1.2 1.2-1.2 3.1 0 4.3 0.6 0.6 1.4 0.9 2.2 0.9zM792 493h-9.7c-1.7 0-3 1.4-3 3s1.4 3 3 3h9.7c1.7 0 3-1.4 3-3s-1.3-3-3-3zM766 496c0-1.7-1.4-3-3-3h-9.7c-1.7 0-3 1.4-3 3s1.4 3 3 3h9.7c1.6 0 3-1.3 3-3z" fill="#036EB8" p-id="18255"></path><path d="M197.4 237.8m-8.9 0a8.9 8.9 0 1 0 17.8 0 8.9 8.9 0 1 0-17.8 0Z" fill="#036EB8" p-id="18256"></path><path d="M149.2 598m-8.9 0a8.9 8.9 0 1 0 17.8 0 8.9 8.9 0 1 0-17.8 0Z" fill="#036EB8" p-id="18257"></path><path d="M582.9 835.4m-8.9 0a8.9 8.9 0 1 0 17.8 0 8.9 8.9 0 1 0-17.8 0Z" fill="#036EB8" p-id="18258"></path><path d="M299.6 554.6c-68.9-68.9-71.3-179-7.2-250.8-2.6 2.3-5.2 4.7-7.7 7.2-71.4 71.4-71.4 187.1 0 258.5s187.1 71.4 258.5 0c2.5-2.5 4.9-5.1 7.2-7.7-71.8 64.1-181.9 61.7-250.8-7.2z" fill="#FFFFFF" p-id="18259"></path><path d="M257.2 265.1c-3.5 3.9-6.8 7.9-10 12 92.2-72.3 226-65.9 310.9 19s91.2 218.7 19 310.9c4.1-3.2 8.1-6.5 12-10 82.7-92.3 79.7-234.2-9-322.9s-230.6-91.7-322.9-9zM278.4 317.6c-2.2 2-4.4 4.1-6.5 6.2-71.4 71.4-71.4 187.1 0 258.5s187.1 71.4 258.5 0c2.1-2.1 4.2-4.3 6.2-6.5-71.7 65.1-182.7 63-252-6.2-69.2-69.3-71.3-180.3-6.2-252z" fill="#2EA7E0" p-id="18260"></path><path d="M558.1 554.6c-2.5 2.5-5.1 4.9-7.7 7.2 64-71.8 61.6-181.9-7.2-250.8-68.9-68.9-179-71.3-250.8-7.2 2.3-2.6 4.7-5.2 7.2-7.7 71.4-71.4 187.1-71.4 258.5 0-84.9-84.9-218.7-91.2-310.9-19-72.3 92.2-65.9 226 19 310.9s218.7 91.2 310.9 19c72.3-92.2 65.9-226-19-310.9 71.4 71.4 71.4 187.1 0 258.5z m-27.7 27.7c-71.4 71.4-187.1 71.4-258.5 0s-71.4-187.1 0-258.5c2.1-2.1 4.3-4.2 6.5-6.2-65.1 71.7-63 182.7 6.2 252 69.2 69.2 180.2 71.3 252 6.2-2 2.2-4.1 4.3-6.2 6.5zM625.9 595.7l-17.5-17.5-40.3 40.3 17.5 17.5c11.8 11.8 11.8 31.1 0 42.9l10.7-10.7L729.1 801c21.4 21.4 56.5 21.4 78 0l-16.3 16.3c21.4-21.4 21.4-56.5 0-78L658.1 606.4l10.7-10.7c-11.8 11.9-31 11.9-42.9 0z" fill="#F7F8F8" p-id="18261"></path><path d="M625.9 595.8l-17.5-17.5-25.5 25.5 17.5 17.5c11.8 11.8 31.1 11.8 42.9 0L632.6 632l132.8 132.8c17 17 20.5 42.6 10.6 63.1 5.4-2.6 10.4-6.1 14.9-10.6 21.4-21.4 21.4-56.5 0-78L658 606.5l10.7-10.7c-11.8 11.8-31 11.8-42.8 0z" fill="#2EA7E0" p-id="18262"></path><path d="M413.9 195.4c-65.4 0-127 25.5-173.2 71.8-43.9 43.9-69.3 102.3-71.6 164.3-0.2 5.5 4.1 10.2 9.6 10.4 5.5 0.2 10.2-4.1 10.4-9.6 2.1-57 25.4-110.6 65.8-150.9 87.7-87.7 230.5-87.7 318.2 0 17.2 17.2 31.3 36.8 42.1 58.3 2.5 4.9 8.5 6.9 13.4 4.5 1-0.5 1.9-1.1 2.6-1.9 3-3 3.8-7.6 1.9-11.6-11.7-23.4-27.2-44.7-45.8-63.4-46.4-46.4-107.9-71.9-173.4-71.9zM636.8 365c-5.3 1.5-8.4 7.1-6.8 12.4 22.9 78.9 1.1 164-56.9 222.1-87.7 87.7-230.5 87.7-318.2 0-36.3-36.3-59.3-84.4-64.7-135.3-0.6-5.5-5.5-9.5-11-8.9-5.5 0.6-9.5 5.5-8.9 11 5.9 55.5 30.9 107.8 70.4 147.4 46.3 46.3 107.8 71.8 173.2 71.8 48.4 0 94.7-14 134.3-40l14 14c7.9 7.9 7.9 20.8 0 28.8-3.9 3.9-3.9 10.2 0 14.1s10.2 3.9 14.1 0l3.7-3.7 33.3 33.3c3.9 3.9 10.2 3.9 14.1 0s3.9-10.2 0-14.1l-33.3-33.3 63.9-63.9 75.1 75.1c3.9 3.9 10.2 3.9 14.1 0s3.9-10.2 0-14.1l-75.1-75.1 3.7-3.7c3.9-3.9 3.9-10.2 0-14.1s-10.2-3.9-14.1 0c-7.9 7.9-20.8 7.9-28.8 0l-14.1-14.1c38.8-59.2 50.5-133.2 30.3-202.8-1.5-5.4-7-8.5-12.3-6.9z m-49.9 298.5c-1.7-6.7-5.2-13-10.5-18.3l-11.7-11.7c7.8-6.1 15.3-12.8 22.5-19.9 7.1-7.1 13.8-14.7 19.9-22.5l11.7 11.7c5.2 5.2 11.6 8.7 18.3 10.5l-50.2 50.2z" fill="#036EB8" p-id="18263"></path><path d="M536.1 562.6c-65.8 65.8-170.9 68-239.3 4.9-4.1-3.7-10.4-3.5-14.1 0.6-3.7 4.1-3.5 10.4 0.6 14.1 36.7 33.8 84.4 51.9 134.3 51 50.1-0.9 97.2-21 132.7-56.4 75.2-75.2 75.2-197.5 0-272.6-75.2-75.2-197.5-75.2-272.6 0-69 69-75.6 178.8-15.4 255.4 3.4 4.3 9.7 5.1 14 1.7 4.3-3.4 5.1-9.7 1.7-14-54-68.6-48.1-167 13.8-228.9 67.4-67.4 177-67.4 244.4 0s67.3 176.8-0.1 244.2zM754.2 702.7c-3.9 3.9-3.9 10.2 0 14.1l29.5 29.5c17.6 17.6 17.6 46.2 0 63.9-17.6 17.6-46.2 17.6-63.9 0l-70.5-70.5c-3.9-3.9-10.2-3.9-14.1 0s-3.9 10.2 0 14.1l70.5 70.5c25.4 25.4 66.7 25.4 92.1 0 25.4-25.4 25.4-66.7 0-92.1l-29.5-29.5c-3.8-3.9-10.2-3.9-14.1 0z" fill="#036EB8" p-id="18264"></path><path d="M358.3 470m-16 0a16 16 0 1 0 32 0 16 16 0 1 0-32 0Z" fill="#3E3A39" p-id="18265"></path><path d="M326.3 496.6m-16 0a16 16 0 1 0 32 0 16 16 0 1 0-32 0Z" fill="#EF6676" p-id="18266"></path><path d="M498 496.6m-16 0a16 16 0 1 0 32 0 16 16 0 1 0-32 0Z" fill="#EF6676" p-id="18267"></path><path d="M466 470m-16 0a16 16 0 1 0 32 0 16 16 0 1 0-32 0Z" fill="#3E3A39" p-id="18268"></path><path d="M437.4 480.6h-50.6c-3.9 0-6.7 3.7-5.8 7.5 1.8 7.5 6.3 14 12.3 18.4 5.3 3.8 11.8 6.1 18.8 6.1s13.5-2.3 18.8-6.1c6.1-4.4 10.5-10.9 12.3-18.4 1-3.8-1.9-7.5-5.8-7.5z" fill="#3E3A39" p-id="18269"></path><path d="M412.1 496.6c-7 0-13.3 3.2-17.5 8.2-0.8 0.9-0.5 2.3 0.5 3 4.9 3.1 10.7 4.9 17 4.9 6.2 0 12.1-1.8 17-4.9 1-0.6 1.3-2 0.5-3-4.2-5-10.4-8.2-17.5-8.2z" fill="#E4847F" p-id="18270"></path></svg>